<svg xmlns="http://www.w3.org/2000/svg" width="224" height="72" viewBox="0 0 224 72" fill="none">
  <rect width="100%" height="100%" fill="#000"/>
  <svg x="0" y="0" width="72" height="72" viewBox="0 0 100 100">
    <defs>
      <clipPath id="cl"><rect x="0" y="0" width="50" height="100"/></clipPath>
      <clipPath id="cr"><rect x="50" y="0" width="50" height="100"/></clipPath>
    </defs>
    <circle cx="50" cy="50" r="21" fill="#fff" clip-path="url(#cl)"/>
    <circle cx="50" cy="50" r="21" fill="#000" clip-path="url(#cr)"/>
    <path d="M 50,16 A 34,34 0 0,1 84,50 L 71,50 A 21,21 0 0,0 50,29 Z" fill="#000"/>
    <path d="M 84,50 A 34,34 0 0,1 50,84 L 50,71 A 21,21 0 0,0 71,50 Z" fill="#fff"/>
    <path d="M 50,84 A 34,34 0 0,1 16,50 L 29,50 A 21,21 0 0,0 50,71 Z" fill="#000"/>
    <path d="M 16,50 A 34,34 0 0,1 50,16 L 50,29 A 21,21 0 0,0 29,50 Z" fill="#fff"/>
    <circle cx="50" cy="50" r="10" fill="#000"/>
    <circle cx="50" cy="50" r="10" fill="none" stroke="#fff" stroke-width="1.2"/>
    <circle cx="50" cy="50" r="21" fill="none" stroke="#fff" stroke-width="1.2"/>
    <circle cx="50" cy="50" r="34" fill="none" stroke="#fff" stroke-width="1.2"/>
  </svg>
  <text x="78" y="52" font-family="Ubuntu Sans, Ubuntu, sans-serif" font-weight="700" font-size="37" fill="white">coinos</text>
  <text x="172" y="28" font-family="Ubuntu, sans-serif" font-style="italic" font-weight="700" font-size="15" fill="white">pro</text>
</svg>
