<svg xmlns="http://www.w3.org/2000/svg" width="72" height="72" viewBox="14 14 72 72" fill="none">
  <defs>
    <clipPath id="cl"><rect x="0" y="0" width="50" height="100"/></clipPath>
    <clipPath id="cr"><rect x="50" y="0" width="50" height="100"/></clipPath>
  </defs>
  <circle cx="50" cy="50" r="21" fill="#000" clip-path="url(#cl)"/>
  <circle cx="50" cy="50" r="21" fill="#fff" clip-path="url(#cr)"/>
  <path d="M 50,16 A 34,34 0 0,1 84,50 L 71,50 A 21,21 0 0,0 50,29 Z" fill="#fff"/>
  <path d="M 84,50 A 34,34 0 0,1 50,84 L 50,71 A 21,21 0 0,0 71,50 Z" fill="#000"/>
  <path d="M 50,84 A 34,34 0 0,1 16,50 L 29,50 A 21,21 0 0,0 50,71 Z" fill="#fff"/>
  <path d="M 16,50 A 34,34 0 0,1 50,16 L 50,29 A 21,21 0 0,0 29,50 Z" fill="#000"/>
  <circle cx="50" cy="50" r="10" fill="#fff"/>
  <circle cx="50" cy="50" r="10" fill="none" stroke="#000" stroke-width="1.2"/>
  <circle cx="50" cy="50" r="21" fill="none" stroke="#000" stroke-width="1.2"/>
  <circle cx="50" cy="50" r="34" fill="none" stroke="#000" stroke-width="1.2"/>
</svg>
